<svg width="32" height="20" viewBox="0 0 32 20" fill="none" xmlns="http://www.w3.org/2000/svg">
<path d="M20.3267 2.23877H11.6738V17.7883H20.3267V2.23877Z" fill="#FF5F00"/>
<path d="M12.2232 10.014C12.2218 8.51651 12.5611 7.0383 13.2155 5.69131C13.8699 4.34432 14.8222 3.16385 16.0002 2.23928C14.5414 1.0926 12.7893 0.379499 10.9444 0.181478C9.09943 -0.0165424 7.23598 0.30851 5.56703 1.11948C3.89808 1.93045 2.49096 3.19462 1.50651 4.7675C0.522061 6.34038 0 8.15849 0 10.014C0 11.8696 0.522061 13.6877 1.50651 15.2606C2.49096 16.8335 3.89808 18.0976 5.56703 18.9086C7.23598 19.7196 9.09943 20.0446 10.9444 19.8466C12.7893 19.6486 14.5414 18.9355 16.0002 17.7888C14.8222 16.8642 13.8699 15.6838 13.2155 14.3368C12.5612 12.9898 12.2218 11.5116 12.2232 10.014Z" fill="#EB001B"/>
<path d="M31.9999 10.014C32 11.8696 31.478 13.6877 30.4936 15.2606C29.5092 16.8334 28.1022 18.0976 26.4332 18.9086C24.7643 19.7196 22.9009 20.0446 21.056 19.8466C19.211 19.6486 17.459 18.9355 16.0002 17.7888C17.1772 16.8633 18.1288 15.6827 18.783 14.3359C19.4373 12.9891 19.7773 11.5113 19.7773 10.014C19.7773 8.51675 19.4373 7.039 18.783 5.69222C18.1288 4.34544 17.1772 3.16478 16.0002 2.23928C17.459 1.0926 19.211 0.379495 21.056 0.181477C22.9009 -0.0165418 24.7643 0.308517 26.4332 1.1195C28.1022 1.93048 29.5092 3.19465 30.4936 4.76753C31.478 6.34041 32 8.15852 31.9999 10.014Z" fill="#F79E1B"/>
<path d="M31.0565 16.1416V15.8233H31.1848V15.7584H30.8579V15.8233H30.9863V16.1416H31.0565ZM31.6911 16.1416V15.7578H31.5909L31.4757 16.0218L31.3604 15.7578H31.2601V16.1416H31.3309V15.8521L31.439 16.1017H31.5123L31.6204 15.8515V16.1416H31.6911Z" fill="#F79E1B"/>
</svg>
