<svg width="135" height="78" viewBox="0 0 135 78" fill="none" xmlns="http://www.w3.org/2000/svg">
<path d="M22.8547 7.95117L15.8665 69.1736H22.3306L23.0294 62.7015H32.8129L33.5991 69.1736H40.0632L33.075 7.95117H22.8547ZM32.1141 56.4044H23.8156L27.9212 15.2979L32.1141 56.4044Z" fill="#FF4343"/>
<path d="M49.0827 51.7578C53.6182 51.7578 56.6607 49.4944 57.5991 45.4373H55.0113C54.272 47.9429 52.111 49.3948 49.097 49.3948C45.0449 49.3948 42.4714 46.1775 42.4714 41.1385C42.4714 36.1418 45.0732 32.8962 49.0827 32.8962C52.0114 32.8962 54.3575 34.6613 55.0113 37.352H57.5991C56.945 33.2522 53.547 30.5332 49.0827 30.5332C43.4667 30.5332 39.8413 34.69 39.8413 41.1385C39.8413 47.6439 43.4241 51.7578 49.0827 51.7578ZM65.1202 49.5657C63.343 49.5657 62.1629 48.6402 62.1629 47.231C62.1629 45.8359 63.3003 44.9533 65.2907 44.8253L69.2433 44.5834V45.7932C69.2433 47.9286 67.4517 49.5657 65.1202 49.5657ZM64.5656 51.6724C66.5562 51.6724 68.4327 50.562 69.3142 48.8681H69.3711V51.4162H71.7172V41.1811C71.7172 38.2345 69.5275 36.3554 66.0586 36.3554C62.561 36.3554 60.3714 38.3198 60.2009 40.8822H62.5893C62.9022 39.4301 64.0966 38.5335 66.0017 38.5335C68.0489 38.5335 69.2433 39.6153 69.2433 41.4231V42.6616L65.0064 42.9036C61.594 43.1029 59.6463 44.6971 59.6463 47.231C59.6463 49.893 61.6226 51.6724 64.5656 51.6724ZM82.0391 36.3554C79.8921 36.3554 78.1718 37.4516 77.262 39.1171H77.2051V36.6117H74.8593V56.3558H77.3329V49.0105H77.3898C78.2713 50.6332 79.9776 51.6724 82.096 51.6724C85.821 51.6724 88.3659 48.6545 88.3659 44.0138C88.3659 39.3734 85.8067 36.3554 82.0391 36.3554ZM81.5558 49.4944C79.0249 49.4944 77.3189 47.3164 77.3189 44.0138C77.3189 40.7255 79.0249 38.5335 81.5558 38.5335C84.1859 38.5335 85.8353 40.6686 85.8353 44.0138C85.8353 47.3734 84.1859 49.4944 81.5558 49.4944ZM90.9963 51.4162H93.4699V36.6117H90.9963V51.4162ZM92.2332 34.1204C93.0861 34.1204 93.7828 33.4228 93.7828 32.583C93.7828 31.729 93.0861 31.0458 92.2332 31.0458C91.3944 31.0458 90.6977 31.729 90.6977 32.583C90.6977 33.4228 91.3944 34.1204 92.2332 34.1204ZM97.6073 33.0386V36.6117H95.4036V38.6472H97.6073V47.5727C97.6073 50.4196 98.6595 51.5301 101.375 51.5301C101.958 51.5301 102.64 51.4874 102.939 51.4162V49.3378C102.768 49.3664 102.2 49.4091 101.915 49.4091C100.65 49.4091 100.081 48.7968 100.081 47.4446V38.6472H102.953V36.6117H100.081V33.0386H97.6073ZM110.19 49.5657C108.413 49.5657 107.233 48.6402 107.233 47.231C107.233 45.8359 108.37 44.9533 110.361 44.8253L114.313 44.5834V45.7932C114.313 47.9286 112.522 49.5657 110.19 49.5657ZM109.636 51.6724C111.626 51.6724 113.503 50.562 114.384 48.8681H114.441V51.4162H116.787V41.1811C116.787 38.2345 114.597 36.3554 111.128 36.3554C107.631 36.3554 105.441 38.3198 105.271 40.8822H107.659C107.972 39.4301 109.166 38.5335 111.072 38.5335C113.119 38.5335 114.313 39.6153 114.313 41.4231V42.6616L110.076 42.9036C106.664 43.1029 104.716 44.6971 104.716 47.231C104.716 49.893 106.693 51.6724 109.636 51.6724ZM120.057 51.4162H122.531V30.8748H120.057V51.4162Z" fill="#FF4343"/>
<path d="M135 56.1868H0V62.8126H135V56.1868Z" fill="#FF4343"/>
</svg>
