<svg xmlns="http://www.w3.org/2000/svg" width="94" height="106" viewBox="0 0 94 106" fill="none">
  <path d="M43.4272 1.12056C45.6297 -0.186687 48.3703 -0.186687 50.5728 1.12056L70.22 12.7818L90.1425 23.9662C92.3759 25.2199 93.7462 27.5934 93.7153 30.1544L93.44 53L93.7153 75.8456C93.7462 78.4066 92.3759 80.7801 90.1425 82.0339L70.22 93.2182L50.5728 104.879C48.3703 106.187 45.6297 106.187 43.4272 104.879L23.78 93.2182L3.85749 82.0339C1.62413 80.7801 0.253828 78.4066 0.284691 75.8456L0.559998 53L0.284691 30.1544C0.253828 27.5934 1.62413 25.2199 3.85748 23.9662L23.78 12.7818L43.4272 1.12056Z" fill="white"/>
</svg>