<svg width="48" height="49" viewBox="0 0 48 49" fill="none" xmlns="http://www.w3.org/2000/svg">
<path id="Icon" d="M17.4 24.5L21.8 29L31.7 18.875M36.9826 8.74664C37.4356 9.8672 38.3052 10.7579 39.4001 11.2229L43.2395 12.8494C44.3352 13.3136 45.2058 14.204 45.6596 15.3246C46.1135 16.4453 46.1135 17.7044 45.6596 18.8251L44.0704 22.7491C43.6164 23.8702 43.6157 25.1306 44.0718 26.2512L45.6583 30.174C45.8833 30.7291 45.9991 31.324 45.9992 31.9249C45.9993 32.5257 45.8837 33.1207 45.6588 33.6758C45.434 34.2309 45.1045 34.7353 44.689 35.1601C44.2735 35.5849 43.7802 35.9218 43.2374 36.1516L39.4008 37.7769C38.3052 38.2403 37.4343 39.1296 36.9796 40.2495L35.3893 44.1763C34.9354 45.2969 34.0649 46.1873 32.9692 46.6515C31.8735 47.1157 30.6424 47.1157 29.5467 46.6515L25.71 45.0261C24.6143 44.5631 23.3836 44.564 22.2886 45.0287L18.4492 46.6529C17.3541 47.1161 16.124 47.1157 15.0292 46.6519C13.9344 46.188 13.0644 45.2988 12.6102 44.1793L11.0194 40.2513C10.5664 39.1308 9.6968 38.2401 8.60186 37.7751L4.76246 36.1485C3.66724 35.6845 2.79696 34.7948 2.34294 33.6747C1.88892 32.5547 1.8883 31.2962 2.34123 30.1757L3.93042 26.2517C4.38316 25.1311 4.38223 23.8724 3.92785 22.7524L2.34094 18.8228C2.11595 18.2677 2.00009 17.6728 2 17.0719C1.99991 16.4711 2.11557 15.8761 2.34039 15.321C2.56521 14.7659 2.89477 14.2615 3.31025 13.8367C3.72573 13.4119 4.21897 13.075 4.7618 12.8452L8.59845 11.2199C9.69312 10.7569 10.5635 9.8687 11.0185 8.75013L12.6088 4.82332C13.0627 3.70268 13.9332 2.81233 15.0289 2.34814C16.1246 1.88395 17.3557 1.88395 18.4514 2.34814L22.2881 3.97351C23.3838 4.43655 24.6145 4.43561 25.7095 3.97088L29.5505 2.35066C30.6461 1.88673 31.8769 1.88683 32.9724 2.35092C34.0679 2.81502 34.9383 3.70511 35.3923 4.82547L36.9831 8.75344L36.9826 8.74664Z" stroke="#FF4C4C" stroke-width="3" stroke-linecap="round" stroke-linejoin="round"/>
</svg>
