<svg width="40" height="40" viewBox="0 0 40 40" fill="none" xmlns="http://www.w3.org/2000/svg">
<circle cx="20" cy="20" r="20" fill="black"/>
<path d="M19.9999 23C16.8298 23 14.0106 24.5306 12.2158 26.906C11.8296 27.4172 11.6364 27.6728 11.6427 28.0183C11.6476 28.2852 11.8152 28.6219 12.0252 28.7867C12.297 29 12.6737 29 13.4271 29H26.5726C27.326 29 27.7027 29 27.9745 28.7867C28.1845 28.6219 28.3521 28.2852 28.357 28.0183C28.3633 27.6728 28.1701 27.4172 27.7839 26.906C25.9891 24.5306 23.1699 23 19.9999 23Z" fill="white"/>
<path d="M19.9999 20C22.4851 20 24.4999 17.9853 24.4999 15.5C24.4999 13.0147 22.4851 11 19.9999 11C17.5146 11 15.4999 13.0147 15.4999 15.5C15.4999 17.9853 17.5146 20 19.9999 20Z" fill="white"/>
<path d="M19.9999 23C16.8298 23 14.0106 24.5306 12.2158 26.906C11.8296 27.4172 11.6364 27.6728 11.6427 28.0183C11.6476 28.2852 11.8152 28.6219 12.0252 28.7867C12.297 29 12.6737 29 13.4271 29H26.5726C27.326 29 27.7027 29 27.9745 28.7867C28.1845 28.6219 28.3521 28.2852 28.357 28.0183C28.3633 27.6728 28.1701 27.4172 27.7839 26.906C25.9891 24.5306 23.1699 23 19.9999 23Z" stroke="white" stroke-width="2" stroke-linecap="round" stroke-linejoin="round"/>
<path d="M19.9999 20C22.4851 20 24.4999 17.9853 24.4999 15.5C24.4999 13.0147 22.4851 11 19.9999 11C17.5146 11 15.4999 13.0147 15.4999 15.5C15.4999 17.9853 17.5146 20 19.9999 20Z" stroke="white" stroke-width="2" stroke-linecap="round" stroke-linejoin="round"/>
</svg>
